<svg width="22" height="21" viewBox="0 0 22 21" fill="none" xmlns="http://www.w3.org/2000/svg">
<path d="M19.3543 20.9277C13.8455 20.9277 8.3367 20.9277 2.8279 20.9277C2.79654 20.916 2.76616 20.8992 2.73381 20.8936C1.50846 20.6818 0.67248 19.6973 0.67182 18.4418C0.668959 13.151 0.668518 7.86021 0.676332 2.56944C0.676773 2.28968 0.722335 1.99759 0.810819 1.73258C1.15177 0.71017 2.07381 0.0825279 3.19791 0.0823078C8.4604 0.0813173 13.7229 0.0818676 18.9854 0.0819776C19.0396 0.0819776 19.094 0.0816474 19.1481 0.0843988C19.9179 0.123138 20.5391 0.44758 21.0156 1.0531C21.2909 1.40308 21.42 1.81347 21.5119 2.23982C21.5119 7.74982 21.5119 13.2598 21.5119 18.7698C21.4988 18.8145 21.4824 18.8585 21.4731 18.904C21.2756 19.8659 20.7095 20.5026 19.7822 20.8175C19.643 20.8647 19.497 20.8915 19.3543 20.9277ZM14.4373 19.2991C14.5272 19.2991 14.5946 19.2991 14.662 19.2991C16.0798 19.2991 17.4977 19.2992 18.9155 19.299C19.5763 19.2989 19.8834 18.9905 19.8834 18.3271C19.8835 13.1092 19.8835 7.89124 19.8834 2.67333C19.8834 2.0229 19.5732 1.71046 18.9268 1.71046C13.7033 1.71024 8.47977 1.71024 3.25635 1.71046C2.60955 1.71046 2.29898 2.02268 2.29887 2.67245C2.29876 7.89036 2.29876 13.1083 2.29887 18.3262C2.29887 18.9903 2.60559 19.2989 3.26603 19.2989C6.0677 19.2991 8.86947 19.299 11.6711 19.299C11.7436 19.299 11.8161 19.299 11.8921 19.299C11.8921 17.0762 11.8921 14.8757 11.8921 12.6529C11.0758 12.6529 10.2729 12.6529 9.47433 12.6529C9.47433 11.8053 9.47433 10.9802 9.47433 10.1329C10.2883 10.1329 11.0913 10.1329 11.9058 10.1329C11.9058 10.037 11.9056 9.96325 11.9058 9.88951C11.9081 9.32636 11.8918 8.76244 11.9162 8.20028C11.9875 6.56244 13.1377 5.16299 14.7269 4.76316C15.5692 4.5513 17.3001 4.66433 17.3081 4.67093C17.3081 5.4981 17.3081 6.32318 17.3081 7.16631C17.2313 7.16631 16.1355 7.15927 15.654 7.16884C15.0163 7.1815 14.5054 7.5843 14.4579 8.19444C14.4083 8.83276 14.4468 9.4779 14.4468 10.1409C15.4157 10.1409 16.3818 10.1409 17.3591 10.1409C17.2189 10.9907 17.0823 11.8183 16.9424 12.6663C16.1033 12.6663 15.2727 12.6663 14.437 12.6663C14.4373 14.8843 14.4373 17.0802 14.4373 19.2991Z" fill="#3ABBED"/>
</svg>
