<svg width="24" height="23" viewBox="0 0 24 23" fill="none" xmlns="http://www.w3.org/2000/svg">
<g clip-path="url(#clip0_1424_3795)">
<path d="M1.39865 9.04675C1.40795 8.9785 1.42337 8.91046 1.42591 8.842C1.44619 8.27126 1.44767 7.69926 1.48613 7.13C1.55924 6.04663 1.76674 4.99264 2.27472 4.01873C3.07261 2.48866 4.33411 1.53039 5.97427 1.04798C6.53845 0.882104 7.1168 0.80709 7.70444 0.788073C8.7335 0.754687 9.76214 0.696155 10.7914 0.67756C11.8281 0.658754 12.8656 0.660233 13.9023 0.681152C14.9598 0.702494 16.0181 0.735458 17.0733 0.804766C18.6626 0.909151 20.0599 1.48221 21.1936 2.62643C21.9832 3.42327 22.465 4.39147 22.7327 5.47315C22.9216 6.23639 23.0123 7.0142 23.0218 7.79709C23.0453 9.7223 23.0482 11.6479 23.0571 13.5734C23.0581 13.7918 23.0507 14.0108 23.0381 14.2288C23.0142 14.6345 22.7002 14.9682 22.3086 15.013C21.9025 15.0595 21.5154 14.8262 21.4026 14.4418C21.358 14.2899 21.3535 14.1221 21.3537 13.9617C21.3548 12.4735 21.3641 10.9855 21.3635 9.49726C21.3633 8.93307 21.3523 8.36867 21.3294 7.80491C21.2969 7.00068 21.2242 6.19983 20.9567 5.433C20.3972 3.82961 19.2489 2.9043 17.6062 2.57868C17.2005 2.49817 16.7809 2.47746 16.3661 2.45676C14.3857 2.35765 12.4035 2.33378 10.4214 2.37625C9.44159 2.39738 8.46113 2.43267 7.48299 2.49585C6.25361 2.5753 5.18377 3.0294 4.34827 3.96062C3.82233 4.54678 3.52058 5.24663 3.34964 6.0086C3.21651 6.60258 3.14763 7.20586 3.14108 7.81209C3.12016 9.74449 3.11297 11.6771 3.10727 13.6095C3.10558 14.1454 3.11741 14.6816 3.14023 15.2171C3.17446 16.0139 3.24631 16.8078 3.51171 17.5679C4.0742 19.1791 5.23089 20.0959 6.88014 20.433C7.32494 20.5238 7.77755 20.5251 8.22742 20.549C9.83398 20.6343 11.4422 20.6614 13.0507 20.6382C14.1366 20.6225 15.2225 20.5893 16.308 20.5479C16.8563 20.527 17.4061 20.5012 17.942 20.3544C19.247 19.9964 20.219 19.2387 20.7879 17.9968C20.9385 17.6678 21.1722 17.4569 21.5384 17.4299C22.1618 17.3838 22.614 18.0078 22.3754 18.5908C22.2744 18.8376 22.1497 19.0774 22.0118 19.3057C21.1281 20.7673 19.822 21.6419 18.1776 22.0374C17.7449 22.1416 17.3045 22.1955 16.8595 22.2122C16.0419 22.243 15.2246 22.2751 14.4071 22.3083C14.3599 22.3102 14.3135 22.3265 14.2668 22.336C12.9123 22.336 11.5576 22.336 10.2031 22.336C10.1634 22.3269 10.1239 22.3113 10.084 22.3096C9.27423 22.2762 8.46451 22.2409 7.65436 22.2132C6.98833 22.1904 6.33687 22.0869 5.7057 21.8724C4.10062 21.3272 2.89955 20.3163 2.17034 18.7732C1.73674 17.8559 1.55206 16.8754 1.48571 15.8717C1.44809 15.3025 1.44577 14.7311 1.4257 14.1608C1.42337 14.0923 1.40795 14.0243 1.39844 13.9562C1.39865 12.3197 1.39865 10.6833 1.39865 9.04675Z" fill="#3ABBED"/>
<path d="M6.90089 11.489C6.90596 8.57724 9.28378 6.20808 12.1983 6.21125C15.1194 6.2142 17.4941 8.60154 17.4829 11.5239C17.4717 14.4349 15.0881 16.8 12.174 16.7918C9.26265 16.7835 6.89582 14.4034 6.90089 11.489ZM12.1831 7.90444C10.2047 7.90719 8.59345 9.52347 8.5945 11.5045C8.59535 13.4836 10.2097 15.0975 12.1897 15.0986C14.1778 15.0996 15.795 13.4774 15.7897 11.4873C15.7842 9.51016 14.1654 7.90169 12.1831 7.90444Z" fill="#3ABBED"/>
<path d="M19.3453 5.78566C19.3463 6.48931 18.7718 7.06089 18.0673 7.0573C17.3729 7.0537 16.8077 6.4855 16.8066 5.79009C16.8056 5.08518 17.3782 4.51528 18.084 4.51888C18.7783 4.52226 19.3444 5.09067 19.3453 5.78566Z" fill="#3ABBED"/>
</g>
<defs>
<clipPath id="clip0_1424_3795">
<rect width="22.821" height="22.821" fill="white" transform="translate(0.816895 0.0894775)"/>
</clipPath>
</defs>
</svg>
