<svg width="23" height="23" viewBox="0 0 23 23" fill="none" xmlns="http://www.w3.org/2000/svg">
<path d="M22.5535 14.784C22.4749 14.8799 22.4648 15.0061 22.3847 15.1064C22.1706 15.3742 21.8888 15.4881 21.5569 15.4357C21.208 15.3805 20.966 15.1814 20.8681 14.8347C20.837 14.7246 20.8333 14.6167 20.8333 14.5064C20.833 11.0723 20.8316 7.63831 20.835 4.20427C20.8354 3.80859 20.7238 3.45243 20.4822 3.1393C20.2247 2.80536 19.8776 2.59975 19.4538 2.51052C19.3117 2.48063 19.171 2.47384 19.028 2.47384C14.0195 2.47493 9.01114 2.47691 4.00265 2.47603C3.46458 2.47592 3.00646 2.64705 2.64416 3.03331C2.36543 3.33057 2.21971 3.68531 2.20134 4.08745C2.19919 4.13606 2.20021 4.18478 2.20021 4.23339C2.20021 9.07159 2.20134 13.9099 2.19794 18.7481C2.1976 19.151 2.29988 19.5178 2.55128 19.8352C2.87798 20.2476 3.31898 20.4668 3.85693 20.4981C3.90705 20.5011 3.95751 20.4995 4.00775 20.4995C9.01624 20.5008 14.0246 20.5006 19.0331 20.5051C19.5067 20.5056 19.9215 20.3682 20.2674 20.0626C20.6387 19.7348 20.8347 19.3173 20.8301 18.8291C20.8254 18.3141 21.3728 17.8362 21.9856 18.0485C22.2339 18.1344 22.4033 18.3087 22.5004 18.5464C22.5126 18.5761 22.5023 18.6185 22.5534 18.6216C22.5534 18.7607 22.5534 18.8997 22.5534 19.0388C22.4858 19.084 22.5138 19.1539 22.5143 19.2108C22.5156 19.3576 22.4853 19.5007 22.4469 19.6384C22.259 20.313 21.9049 20.8894 21.3521 21.3486C20.8997 21.7244 20.3887 21.9752 19.8029 22.0907C19.7307 22.1049 3.39915 22.1299 3.36445 22.1232C3.00759 22.0547 2.6589 21.9624 2.33662 21.7924C1.68459 21.4485 1.17204 20.966 0.838656 20.3243C0.589071 19.8439 0.473406 19.3267 0.473633 18.7847C0.475674 13.962 0.474654 9.13947 0.475221 4.31682C0.475221 4.11613 0.480437 3.91687 0.507879 3.71585C0.573309 3.23685 0.721064 2.7862 0.99503 2.38483C1.534 1.59576 2.26689 1.06837 3.24176 0.879392C3.30923 0.866363 19.6695 0.888698 19.7322 0.890888C20.0611 0.902384 20.3544 1.03158 20.6403 1.16592C21.1845 1.42146 21.6179 1.80784 21.9561 2.29133C22.2891 2.76715 22.5003 3.2859 22.5163 3.86837C22.5175 3.90866 22.5076 3.95322 22.5536 3.97982C22.5535 7.58115 22.5535 11.1826 22.5535 14.784Z" fill="#3ABBED"/>
<path d="M12.2007 10.2578C12.412 9.97727 12.6357 9.73016 12.9106 9.52389C13.3025 9.22981 13.7455 9.04894 14.2255 8.94898C14.705 8.84924 15.1873 8.84332 15.6759 8.89697C16.1263 8.94646 16.5584 9.03711 16.9696 9.22729C17.605 9.52115 18.0179 10.0061 18.277 10.6246C18.4492 11.0356 18.5372 11.4663 18.5885 11.9072C18.6421 12.369 18.6692 12.831 18.6686 13.2955C18.6668 14.7207 18.6674 16.1458 18.6684 17.5709C18.6686 17.9005 18.5411 18.1615 18.2451 18.3359C18.1141 18.4131 17.9702 18.4502 17.8175 18.4505C17.4006 18.4517 16.9839 18.4523 16.5671 18.4509C16.0746 18.4492 15.7006 18.083 15.7005 17.6074C15.7004 16.2239 15.7041 14.8404 15.6964 13.4571C15.6941 13.0568 15.6475 12.659 15.5095 12.2757C15.313 11.7296 14.9097 11.4288 14.3273 11.3674C13.9631 11.329 13.6023 11.3681 13.2553 11.511C12.8838 11.6639 12.6333 11.9285 12.4696 12.2701C12.3343 12.5525 12.2739 12.8568 12.2344 13.168C12.1967 13.4663 12.2027 13.7632 12.202 14.0608C12.1994 15.2357 12.2004 16.4106 12.2012 17.5855C12.2014 17.9085 12.069 18.1604 11.7837 18.333C11.6467 18.4159 11.4954 18.4513 11.3356 18.4519C10.9404 18.4535 10.5451 18.4515 10.1498 18.4529C9.6526 18.4547 9.27227 18.0806 9.27295 17.5959C9.27567 15.6979 9.27408 13.8001 9.27408 11.9021C9.27408 11.2278 9.27284 10.5535 9.27465 9.87906C9.27556 9.55575 9.41889 9.30645 9.70646 9.13926C9.8312 9.06678 9.96988 9.03164 10.1146 9.03087C10.5314 9.02857 10.9484 9.02255 11.3649 9.03241C11.8316 9.04346 12.1824 9.38703 12.1999 9.84184C12.2052 9.98034 12.2007 10.1192 12.2007 10.2578Z" fill="#3ABBED"/>
<path d="M4.35735 13.7421C4.35735 12.4635 4.35792 11.1848 4.35701 9.90607C4.35679 9.57575 4.48765 9.3155 4.78407 9.1423C4.91504 9.06576 5.0586 9.02821 5.21236 9.02832C5.64338 9.02865 6.0744 9.0281 6.50543 9.02887C6.99462 9.02985 7.37336 9.39685 7.37336 9.87257C7.37313 12.4508 7.37302 15.029 7.37359 17.6072C7.3737 18.0845 6.99484 18.4515 6.50769 18.4531C6.08382 18.4545 5.66005 18.452 5.23618 18.4542C4.73803 18.4568 4.35531 18.0802 4.35645 17.5989C4.3594 16.3134 4.35735 15.0278 4.35735 13.7421Z" fill="#3ABBED"/>
<path d="M7.67477 6.03719C7.67228 6.94844 6.89959 7.74003 5.88764 7.7328C4.90382 7.7258 4.12274 6.91319 4.14043 5.99832C4.15823 5.07491 4.93466 4.31431 5.91554 4.31574C6.91422 4.31716 7.68691 5.11455 7.67477 6.03719Z" fill="#3ABBED"/>
</svg>
