<svg width="135" height="40" viewBox="0 0 135 40" fill="none" xmlns="http://www.w3.org/2000/svg">
<path d="M8.30142 2.85773C9.68736 2.85773 10.9161 3.27922 11.952 4.10793C12.1663 4.3151 12.4306 4.42226 12.7235 4.42226C13.0236 4.42226 13.2879 4.3151 13.5022 4.10078C13.7166 3.88646 13.8237 3.61499 13.8237 3.32209C13.8237 3.02204 13.7166 2.75771 13.5094 2.54339L13.4808 2.51482C11.9877 1.27177 10.2374 0.643097 8.30857 0.643097C6.0725 0.643097 4.12934 1.45037 2.54338 3.03633C0.957416 4.62229 0.150146 6.56545 0.150146 8.80152C0.150146 11.0376 0.957416 12.9807 2.54338 14.5667C4.12934 16.1527 6.06536 16.9599 8.30857 16.9599C10.2017 16.9599 11.9234 16.3527 13.4308 15.1454L13.4594 15.1239C13.6665 14.9168 13.7809 14.6453 13.7809 14.3452C13.7809 14.0452 13.6737 13.7809 13.4594 13.5665C13.2451 13.3522 12.9807 13.2451 12.6807 13.2451C12.4449 13.2451 12.2306 13.3094 12.0449 13.438L12.0234 13.4522C10.9733 14.3167 9.72307 14.7524 8.30857 14.7524C6.6726 14.7524 5.25809 14.1666 4.10791 13.0093C2.94344 11.8449 2.35764 10.4303 2.35764 8.80152C2.35764 7.17269 2.94344 5.75104 4.10077 4.60086C5.25809 3.44354 6.6726 2.85773 8.30142 2.85773Z" fill="#14243A"/>
<path d="M44.6074 0.650208C44.3074 0.650208 44.0359 0.764511 43.8287 0.971686C43.6144 1.18601 43.5073 1.45033 43.5073 1.75038V12.6307L34.5059 1.05741L34.4916 1.04313C34.263 0.785943 33.9701 0.650208 33.6414 0.650208C33.3414 0.650208 33.0699 0.764511 32.8627 0.971686C32.6484 1.18601 32.5413 1.45033 32.5413 1.75038V15.8454C32.5413 16.1455 32.6556 16.417 32.8627 16.6241C33.0771 16.8385 33.3414 16.9456 33.6414 16.9456C33.9415 16.9456 34.2058 16.8385 34.4201 16.6241C34.6344 16.4098 34.7416 16.1383 34.7416 15.8454V4.97946L43.7644 16.5741L43.7859 16.6027C44.0073 16.8313 44.2931 16.9528 44.6074 16.9528C44.9075 16.9528 45.1718 16.8456 45.3861 16.6313C45.6004 16.417 45.7076 16.1455 45.7076 15.8526V1.75038C45.7076 1.45033 45.6004 1.18601 45.3861 0.971686C45.1718 0.757367 44.9075 0.650208 44.6074 0.650208Z" fill="#14243A"/>
<path d="M58.1449 14.7453H49.8507V9.90886H55.7945C56.0946 9.90886 56.3589 9.8017 56.5732 9.58738C56.7875 9.37306 56.8947 9.10159 56.8947 8.80869C56.8947 8.50864 56.7875 8.24431 56.5732 8.02999C56.3589 7.81567 56.0946 7.70851 55.7945 7.70851H49.8507V2.85775H58.1449C58.4449 2.85775 58.7093 2.75059 58.9236 2.53628C59.1379 2.32196 59.2451 2.05048 59.2451 1.75758C59.2451 1.45753 59.1379 1.19321 58.9236 0.978889C58.7093 0.764569 58.4449 0.65741 58.1449 0.65741H48.7506C48.4505 0.65741 48.179 0.771713 47.9719 0.978889C47.7576 1.19321 47.6504 1.45753 47.6504 1.75758V15.8526C47.6504 16.1527 47.7647 16.4242 47.9719 16.6313C48.1862 16.8457 48.4505 16.9528 48.7506 16.9528H58.152C58.4521 16.9528 58.7164 16.8457 58.9307 16.6313C59.145 16.417 59.2522 16.1455 59.2522 15.8526C59.2522 15.5526 59.145 15.2883 58.9307 15.074C58.7093 14.8525 58.4521 14.7453 58.1449 14.7453Z" fill="#14243A"/>
<path d="M67.539 2.85773C68.925 2.85773 70.1537 3.27922 71.1896 4.10793C71.4039 4.3151 71.6683 4.42226 71.9612 4.42226C72.2612 4.42226 72.5255 4.3151 72.7398 4.10078C72.9542 3.88646 73.0613 3.61499 73.0613 3.32209C73.0613 3.02204 72.9542 2.75771 72.747 2.54339L72.7184 2.51482C71.2182 1.27177 69.4679 0.643097 67.539 0.643097C65.303 0.643097 63.3598 1.45037 61.7738 3.03633C60.1879 4.62229 59.3806 6.55831 59.3806 8.80152C59.3806 11.0376 60.1879 12.9807 61.7738 14.5667C63.3598 16.1527 65.2958 16.9599 67.539 16.9599C69.4322 16.9599 71.161 16.3527 72.6613 15.1454L72.6898 15.1239C72.897 14.9168 73.0113 14.6453 73.0113 14.3452C73.0113 14.0452 72.9042 13.7809 72.6898 13.5665C72.4755 13.3522 72.2112 13.2451 71.9111 13.2451C71.6754 13.2451 71.4611 13.3094 71.2753 13.438L71.2539 13.4522C70.2037 14.3167 68.9535 14.7524 67.539 14.7524C65.9031 14.7524 64.4886 14.1666 63.3384 13.0093C62.1811 11.852 61.5952 10.4375 61.5952 8.80866C61.5952 7.17983 62.1811 5.75818 63.3384 4.608C64.4886 3.44354 65.9031 2.85773 67.539 2.85773Z" fill="#14243A"/>
<path d="M98.7367 15.3811L92.6643 1.40032C92.6072 1.24316 92.5072 1.09313 92.3714 0.964542L92.3572 0.950254C92.1214 0.750223 91.8428 0.650208 91.5213 0.650208C91.1998 0.650208 90.9212 0.757367 90.6926 0.957398C90.5497 1.08599 90.4426 1.23601 90.3783 1.40032L84.3059 15.3811C84.2345 15.524 84.1987 15.6811 84.1987 15.8526C84.1987 16.1598 84.3273 16.4312 84.5631 16.6456C84.7917 16.8527 85.0774 16.9599 85.3989 16.9599C85.7204 16.9599 85.999 16.8599 86.2348 16.6599L86.2491 16.6456C86.3562 16.5384 86.4419 16.4241 86.4991 16.3027L88.5923 11.4805H94.4503L96.5435 16.2884L96.5507 16.2955C96.615 16.4241 96.7078 16.5456 96.8221 16.6527C97.0507 16.8599 97.3294 16.9599 97.6508 16.9599C97.9723 16.9599 98.2509 16.8527 98.4867 16.6456C98.7224 16.4312 98.851 16.1598 98.851 15.8526C98.8439 15.6811 98.8082 15.524 98.7367 15.3811ZM93.493 9.2587H89.5496L91.5213 4.72227L93.493 9.2587Z" fill="#14243A"/>
<path d="M19.9605 23.0109H23.0967C24.4969 23.0109 25.6971 23.511 26.6973 24.504C27.6974 25.497 28.1904 26.6972 28.1904 28.1046C28.1904 29.5048 27.6903 30.705 26.6973 31.7051C25.7043 32.7053 24.5041 33.1982 23.0967 33.1982H20.7464V37.899C20.7464 38.1133 20.6678 38.299 20.5177 38.4491C20.3677 38.6062 20.182 38.6777 19.9677 38.6777C19.7533 38.6777 19.5676 38.5991 19.4176 38.4491C19.2675 38.2919 19.189 38.1133 19.189 37.899V23.7896C19.189 23.5753 19.2675 23.3896 19.4176 23.2395C19.5605 23.0895 19.7462 23.0109 19.9605 23.0109ZM20.7464 24.5755V31.6266H23.0967C24.0683 31.6266 24.897 31.2836 25.59 30.5907C26.2758 29.9049 26.6258 29.069 26.6258 28.0974C26.6258 27.1259 26.2829 26.2972 25.59 25.6042C24.9041 24.9184 24.0683 24.5683 23.0967 24.5683L20.7464 24.5755Z" fill="#14243A"/>
<path d="M19.9603 38.9991C19.6602 38.9991 19.3888 38.8848 19.1816 38.6776C18.9673 38.4633 18.8601 38.199 18.8601 37.8989V23.7896C18.8601 23.4895 18.9673 23.2252 19.1816 23.0109C19.3959 22.7966 19.6602 22.6894 19.9603 22.6894H23.0893C24.5753 22.6894 25.8612 23.2252 26.9114 24.2754C27.9615 25.3255 28.4973 26.6186 28.4973 28.0974C28.4973 29.5834 27.9615 30.8693 26.9114 31.9194C25.8612 32.9696 24.5681 33.5054 23.0893 33.5054H21.0605V37.8847C21.0605 38.1918 20.9533 38.449 20.739 38.6634C20.5247 38.8848 20.2603 38.9991 19.9603 38.9991ZM19.9603 23.3324C19.8317 23.3324 19.7245 23.3752 19.6317 23.4681C19.5388 23.561 19.4959 23.661 19.4959 23.7967V37.8918C19.4959 38.0204 19.5388 38.1276 19.6317 38.2204C19.7245 38.3133 19.8245 38.3562 19.9603 38.3562C20.0889 38.3562 20.196 38.3133 20.2889 38.2204C20.3818 38.1276 20.4246 38.0275 20.4246 37.8918V32.8696H23.0965C24.4253 32.8696 25.5254 32.4124 26.4684 31.4694C27.4114 30.5264 27.8687 29.4262 27.8687 28.0974C27.8687 26.7686 27.4114 25.6685 26.4684 24.7255C25.5254 23.7825 24.4253 23.3252 23.0965 23.3252H19.9603V23.3324ZM23.0965 31.948H20.4246V24.254H23.0965C24.1538 24.254 25.0682 24.6326 25.8183 25.3827C26.5685 26.1328 26.9471 27.0472 26.9471 28.1046C26.9471 29.1619 26.5685 30.0763 25.8183 30.8264C25.0682 31.5694 24.1466 31.948 23.0965 31.948ZM21.0676 31.3051H23.0965C23.9895 31.3051 24.7325 30.9979 25.3611 30.3692C25.9898 29.7405 26.297 28.9976 26.297 28.1046C26.297 27.2116 25.9898 26.4686 25.3611 25.8399C24.7325 25.2112 23.9895 24.9041 23.0965 24.9041H21.0676V31.3051Z" fill="#14243A"/>
<path d="M31.7195 23.0109H35.6344C36.9346 23.0109 38.042 23.4681 38.9564 24.3826C39.8708 25.297 40.328 26.4115 40.328 27.7045C40.328 28.9976 39.8708 30.112 38.9564 31.0265C38.5349 31.448 38.0705 31.7766 37.5776 31.998L40.9853 37.4632C41.071 37.5846 41.1139 37.7347 41.1139 37.8918C41.1139 38.1061 41.0353 38.2919 40.8853 38.4419C40.7281 38.5991 40.5495 38.6705 40.3352 38.6705C40.0566 38.6705 39.828 38.5348 39.6494 38.2705L35.9774 32.3981C35.8702 32.4053 35.7487 32.4053 35.6344 32.4053H32.5054V37.8847C32.5054 38.099 32.4268 38.2847 32.2768 38.4348C32.1268 38.5919 31.941 38.6634 31.7267 38.6634C31.5124 38.6634 31.3266 38.5848 31.1766 38.4348C31.0266 38.2776 30.948 38.099 30.948 37.8847V23.7896C30.948 23.5753 31.0266 23.3896 31.1766 23.2395C31.3195 23.0895 31.5052 23.0109 31.7195 23.0109ZM32.5054 24.5755V30.8407H35.6344C36.506 30.8407 37.2418 30.5335 37.8491 29.9263C38.4563 29.3191 38.7635 28.5761 38.7635 27.7117C38.7635 26.8472 38.4563 26.1043 37.8491 25.497C37.2418 24.8898 36.506 24.5755 35.6344 24.5755H32.5054Z" fill="#14243A"/>
<path d="M40.3352 38.9991C40.0637 38.9991 39.6779 38.9062 39.3779 38.449L35.7988 32.7267C35.7416 32.7267 35.6845 32.7267 35.6273 32.7267H32.8197V37.8847C32.8197 38.1918 32.7126 38.449 32.4982 38.6634C32.2839 38.8777 32.0196 38.9848 31.7196 38.9848C31.4195 38.9848 31.148 38.8705 30.9409 38.6634C30.7265 38.449 30.6194 38.1847 30.6194 37.8847V23.7896C30.6194 23.4895 30.7265 23.2252 30.9409 23.0109C31.1552 22.7966 31.4195 22.6894 31.7196 22.6894H35.6345C37.0132 22.6894 38.2134 23.1824 39.185 24.1611C40.1637 25.1327 40.6567 26.3328 40.6567 27.7116C40.6567 29.0904 40.1637 30.2835 39.1922 31.255C38.835 31.6122 38.4492 31.9052 38.042 32.1266L41.2568 37.2846C41.3782 37.4632 41.4354 37.6632 41.4354 37.8918C41.4354 38.199 41.3282 38.4562 41.1139 38.6705C40.8996 38.8848 40.6424 38.9991 40.3352 38.9991ZM36.156 32.0695L39.928 38.1061C40.0709 38.3276 40.228 38.3562 40.3423 38.3562C40.4709 38.3562 40.5781 38.3133 40.671 38.2204C40.7638 38.1276 40.8067 38.0275 40.8067 37.8918C40.8067 37.7918 40.7853 37.7132 40.7353 37.6418L40.7281 37.6275L37.1275 31.848L37.4633 31.698C37.9205 31.4908 38.3563 31.1908 38.7492 30.7978C39.6065 29.9406 40.028 28.9261 40.028 27.7045C40.028 26.4829 39.6065 25.4684 38.7492 24.6112C37.8848 23.7467 36.8704 23.3324 35.6559 23.3324H31.7196C31.591 23.3324 31.4838 23.3752 31.3981 23.4681C31.3052 23.561 31.2623 23.6681 31.2623 23.7967V37.8918C31.2623 38.0204 31.3052 38.1276 31.3981 38.2204C31.4909 38.3133 31.591 38.3562 31.7267 38.3562C31.8553 38.3562 31.9625 38.3133 32.0553 38.2204C32.1482 38.1276 32.1911 38.0275 32.1911 37.8918V32.0909H35.6487C35.7559 32.0909 35.8631 32.0909 35.9702 32.0838L36.156 32.0695ZM35.6345 31.1622H32.1768V24.5754H32.4982V24.254H35.6273C36.5775 24.254 37.4062 24.5969 38.0706 25.2613C38.7421 25.9328 39.0779 26.7543 39.0779 27.7045C39.0779 28.6546 38.7349 29.4762 38.0706 30.1477C37.4062 30.8193 36.5917 31.1622 35.6345 31.1622ZM32.8269 30.5192H35.6345C36.4203 30.5192 37.0704 30.2477 37.6276 29.6977C38.1777 29.1476 38.4492 28.4975 38.4492 27.7045C38.4492 26.9115 38.1777 26.2686 37.6276 25.7113C37.0775 25.1612 36.4274 24.8898 35.6345 24.8898H32.8269V30.5192Z" fill="#14243A"/>
<path d="M61.6168 23.0109H64.7459C66.1461 23.0109 67.3463 23.511 68.3465 24.504C69.3466 25.497 69.8395 26.6972 69.8395 28.1046C69.8395 29.5048 69.3395 30.705 68.3465 31.7051C67.3534 32.6982 66.1533 33.1982 64.7459 33.1982H62.3955V37.899C62.3955 38.1133 62.3169 38.299 62.1669 38.4491C62.0097 38.6062 61.8311 38.6777 61.6168 38.6777C61.4025 38.6777 61.2168 38.5991 61.0667 38.4491C60.9096 38.2919 60.8381 38.1133 60.8381 37.899V23.7896C60.8381 23.5753 60.9167 23.3896 61.0667 23.2395C61.2239 23.0895 61.4025 23.0109 61.6168 23.0109ZM62.4027 24.5755V31.6266H64.753C65.7246 31.6266 66.5533 31.2836 67.2463 30.5907C67.9321 29.9049 68.2822 29.069 68.2822 28.0974C68.2822 27.1259 67.9392 26.2972 67.2463 25.6042C66.5533 24.9112 65.7246 24.5755 64.753 24.5755H62.4027Z" fill="#14243A"/>
<path d="M61.617 38.9991C61.3098 38.9991 61.0526 38.892 60.8383 38.6776C60.624 38.4633 60.5168 38.199 60.5168 37.8989V23.7896C60.5168 23.4895 60.624 23.2252 60.8383 23.0109C61.0526 22.7966 61.317 22.6894 61.617 22.6894H64.7532C66.2392 22.6894 67.5251 23.2252 68.5753 24.2754C69.6254 25.3255 70.1612 26.6186 70.1612 28.0974C70.1612 29.5834 69.6254 30.8693 68.5753 31.9194C67.5251 32.9696 66.232 33.5054 64.7532 33.5054H62.7243V37.8847C62.7243 38.1918 62.6172 38.449 62.4029 38.6634C62.1885 38.8848 61.9242 38.9991 61.617 38.9991ZM61.617 23.3324C61.4884 23.3324 61.3813 23.3752 61.2884 23.4681C61.1955 23.561 61.1527 23.661 61.1527 23.7967V37.8918C61.1527 38.0204 61.1955 38.1276 61.2884 38.2204C61.3813 38.3133 61.4813 38.3562 61.617 38.3562C61.7456 38.3562 61.8528 38.3133 61.9456 38.2204C62.0385 38.1276 62.0814 38.0275 62.0814 37.8918V32.8696H64.7532C66.082 32.8696 67.1822 32.4124 68.1252 31.4694C69.0682 30.5264 69.5254 29.4262 69.5254 28.0974C69.5254 26.7686 69.0682 25.6685 68.1252 24.7255C67.1822 23.7825 66.082 23.3252 64.7532 23.3252H61.617V23.3324ZM64.7532 31.948H62.0814V24.254H64.7532C65.8105 24.254 66.725 24.6326 67.4751 25.3827C68.2252 26.1328 68.6038 27.0472 68.6038 28.1046C68.6038 29.1619 68.2252 30.0763 67.4751 30.8264C66.725 31.5694 65.8105 31.948 64.7532 31.948ZM62.7243 31.3051H64.7532C65.6462 31.3051 66.3892 30.9979 67.0179 30.3692C67.6465 29.7405 67.9537 28.9976 67.9537 28.1046C67.9537 27.2116 67.6465 26.4686 67.0179 25.8399C66.3892 25.2112 65.6462 24.9041 64.7532 24.9041H62.7243V31.3051Z" fill="#14243A"/>
<path d="M102.98 23.7896C102.98 23.5753 103.059 23.3896 103.209 23.2395C103.359 23.0895 103.545 23.0109 103.759 23.0109C103.973 23.0109 104.159 23.0895 104.309 23.2395C104.466 23.3896 104.538 23.5753 104.538 23.7896V37.8918C104.538 38.1061 104.459 38.2919 104.309 38.4419C104.152 38.5991 103.973 38.6705 103.759 38.6705C103.545 38.6705 103.359 38.5919 103.209 38.4419C103.052 38.2847 102.98 38.1061 102.98 37.8918V23.7896Z" fill="#14243A"/>
<path d="M103.766 38.9991C103.466 38.9991 103.195 38.8848 102.988 38.6776C102.773 38.4633 102.666 38.199 102.666 37.8989V23.7896C102.666 23.4895 102.773 23.2252 102.988 23.0109C103.202 22.7966 103.466 22.6894 103.766 22.6894C104.066 22.6894 104.338 22.8037 104.545 23.0109C104.759 23.2252 104.867 23.4895 104.867 23.7896V37.8918C104.867 38.199 104.759 38.4562 104.545 38.6705C104.331 38.8848 104.066 38.9991 103.766 38.9991ZM103.766 23.3324C103.638 23.3324 103.531 23.3752 103.438 23.4681C103.345 23.561 103.302 23.661 103.302 23.7967V37.8989C103.302 38.0275 103.345 38.1347 103.438 38.2276C103.531 38.3204 103.631 38.3633 103.766 38.3633C103.895 38.3633 104.002 38.3204 104.095 38.2276C104.188 38.1347 104.231 38.0347 104.231 37.8989V23.7896C104.231 23.661 104.188 23.5538 104.095 23.461C103.995 23.3752 103.895 23.3324 103.766 23.3324Z" fill="#14243A"/>
<path d="M107.96 24.5754C107.746 24.5754 107.56 24.4968 107.41 24.3468C107.253 24.1968 107.181 24.011 107.181 23.7967C107.181 23.5824 107.26 23.3966 107.41 23.2466C107.56 23.0966 107.746 23.018 107.96 23.018H118.14C118.355 23.018 118.54 23.0966 118.69 23.2466C118.84 23.3966 118.919 23.5824 118.919 23.7967C118.919 24.011 118.84 24.1968 118.69 24.3468C118.533 24.4968 118.355 24.5754 118.14 24.5754H113.832V37.8918C113.832 38.1061 113.754 38.2918 113.604 38.4418C113.447 38.599 113.268 38.6705 113.054 38.6705C112.839 38.6705 112.654 38.5919 112.504 38.4418C112.346 38.2847 112.275 38.1061 112.275 37.8918V24.5754H107.96Z" fill="#14243A"/>
<path d="M113.047 38.9991C112.739 38.9991 112.482 38.8919 112.268 38.6776C112.054 38.4633 111.946 38.199 111.946 37.8989V24.8969H107.96C107.66 24.8969 107.389 24.7826 107.181 24.5754C106.967 24.3611 106.86 24.0968 106.86 23.7967C106.86 23.4967 106.967 23.2323 107.181 23.018C107.396 22.8037 107.66 22.6965 107.96 22.6965H118.14C118.44 22.6965 118.705 22.8037 118.919 23.018C119.133 23.2323 119.24 23.4967 119.24 23.7967C119.24 24.0968 119.126 24.3682 118.919 24.5754C118.705 24.7897 118.44 24.8969 118.14 24.8969H114.154V37.8918C114.154 38.199 114.047 38.4561 113.832 38.6705C113.611 38.8848 113.354 38.9991 113.047 38.9991ZM107.96 23.3323C107.831 23.3323 107.724 23.3752 107.631 23.4681C107.539 23.561 107.496 23.661 107.496 23.7967C107.496 23.9253 107.539 24.0325 107.631 24.1253C107.724 24.2182 107.824 24.2611 107.96 24.2611H112.589V37.8989C112.589 38.0275 112.632 38.1347 112.725 38.2275C112.818 38.3204 112.918 38.3633 113.054 38.3633C113.182 38.3633 113.289 38.3204 113.382 38.2275C113.475 38.1347 113.518 38.0346 113.518 37.8989V24.2539H118.147C118.276 24.2539 118.383 24.2111 118.476 24.1182C118.569 24.0253 118.612 23.9253 118.612 23.7896C118.612 23.661 118.569 23.5538 118.476 23.4609C118.383 23.3681 118.283 23.3252 118.147 23.3252H107.96V23.3323Z" fill="#14243A"/>
<path d="M90.6857 34.1412H90.7143C91.0786 34.1412 91.4073 34.427 91.5073 34.8413C91.6573 35.4843 91.9502 35.9772 92.386 36.313C92.9646 36.7631 93.8005 36.9845 94.8935 36.9845C97.1582 36.9845 98.294 36.0987 98.294 34.3198C98.294 33.5411 98.0797 32.9482 97.6439 32.5338C97.2082 32.1195 96.5438 31.848 95.6365 31.7266L93.8648 31.4837C91.3072 31.1122 90.0285 29.7334 90.0285 27.3473C90.0285 25.9614 90.4642 24.8826 91.3287 24.1182C92.1931 23.3538 93.379 22.968 94.8792 22.968C96.3437 22.968 97.4939 23.3395 98.3226 24.0754C98.8941 24.5826 99.3013 25.2613 99.5442 26.1043C99.7157 26.7186 99.3156 27.3544 98.7655 27.3544C98.4012 27.3544 98.0797 27.0687 97.9797 26.6615C97.844 26.1043 97.5868 25.6685 97.2082 25.3541C96.6866 24.9112 95.908 24.6969 94.8792 24.6969C93.8362 24.6969 93.0432 24.9112 92.5146 25.347C91.9859 25.7828 91.7144 26.4043 91.7144 27.2259C91.7144 27.9403 91.9216 28.5046 92.336 28.9047C92.7503 29.3048 93.3933 29.5762 94.272 29.712L96.1223 29.9549C98.7155 30.3549 100.016 31.7766 100.016 34.2055C100.016 35.6486 99.5585 36.7702 98.6441 37.5632C97.7297 38.3562 96.458 38.7491 94.8292 38.7491C93.2504 38.7491 92.0288 38.3633 91.1644 37.5846C90.55 37.0345 90.1356 36.3059 89.907 35.3843C89.7498 34.7556 90.1428 34.1412 90.6857 34.1412Z" fill="#14243A"/>
<path d="M94.8223 39.0491C93.1721 39.0491 91.8647 38.6276 90.9431 37.8061C90.2859 37.2131 89.8287 36.4202 89.5929 35.4486C89.4929 35.0271 89.5786 34.5842 89.8358 34.2555C90.0501 33.9841 90.3645 33.8269 90.6931 33.8269H90.7217C91.2432 33.8269 91.6933 34.2127 91.829 34.7699C91.9647 35.3486 92.2148 35.7701 92.5934 36.063C93.1149 36.463 93.8936 36.6702 94.908 36.6702C95.9582 36.6702 96.7512 36.4702 97.2584 36.0701C97.7442 35.6843 97.9871 35.12 97.9871 34.327C97.9871 33.634 97.8085 33.1268 97.437 32.7696C97.0584 32.4052 96.444 32.1624 95.6153 32.0552L93.8364 31.8123C91.1074 31.4122 89.7215 29.912 89.7215 27.3545C89.7215 25.8757 90.193 24.7112 91.1289 23.8825C92.0504 23.0609 93.3149 22.6466 94.8938 22.6466C96.4297 22.6466 97.6585 23.0466 98.5515 23.8325C99.1658 24.3826 99.6088 25.1112 99.866 26.0114C99.9874 26.4329 99.9017 26.883 99.6516 27.2187C99.4373 27.5045 99.1158 27.6688 98.7801 27.6688C98.2728 27.6688 97.8228 27.283 97.6799 26.7329C97.5585 26.24 97.337 25.8685 97.0155 25.597C96.5583 25.2113 95.8439 25.0112 94.8938 25.0112C93.9293 25.0112 93.2006 25.2041 92.7291 25.5899C92.2719 25.9614 92.0504 26.4972 92.0504 27.2187C92.0504 27.8474 92.2219 28.326 92.572 28.6618C92.9363 29.0119 93.5293 29.2548 94.3365 29.3762L96.1797 29.6191C98.9515 30.0477 100.352 31.5837 100.352 34.1841C100.352 35.72 99.8517 36.9345 98.8658 37.7847C97.8799 38.6205 96.5226 39.0491 94.8223 39.0491ZM90.686 34.4627C90.5074 34.4627 90.393 34.577 90.3359 34.6485C90.2002 34.8199 90.1573 35.0628 90.2145 35.2914C90.4216 36.1415 90.8074 36.8202 91.3718 37.3274C92.1719 38.0418 93.3364 38.4062 94.8223 38.4062C96.3654 38.4062 97.5799 38.0347 98.43 37.2989C99.2802 36.563 99.6945 35.5486 99.6945 34.1912C99.6945 31.9266 98.5086 30.6407 96.0725 30.2621L94.2294 30.0192C93.2792 29.8763 92.572 29.5762 92.1076 29.1262C91.629 28.6618 91.3932 28.0188 91.3932 27.2187C91.3932 26.2971 91.7004 25.5828 92.3148 25.0898C92.9077 24.6112 93.7721 24.3683 94.8866 24.3683C95.9939 24.3683 96.8441 24.6183 97.4227 25.1041C97.8514 25.4613 98.1443 25.9614 98.3014 26.5758C98.3657 26.8401 98.5658 27.0258 98.7729 27.0258C98.9515 27.0258 99.073 26.9044 99.1301 26.8329C99.2587 26.6615 99.3016 26.4115 99.2444 26.19C99.023 25.4113 98.6443 24.7826 98.1228 24.3183C97.3513 23.6396 96.2654 23.2895 94.8938 23.2895C93.4792 23.2895 92.3576 23.6467 91.5575 24.3611C90.7574 25.0684 90.3645 26.0471 90.3645 27.3545C90.3645 29.5762 91.5289 30.8264 93.9222 31.1765L95.6939 31.4194C96.6583 31.548 97.3941 31.848 97.8799 32.3124C98.3729 32.791 98.63 33.4697 98.63 34.3341C98.63 36.7988 96.6083 37.3203 94.908 37.3203C93.7436 37.3203 92.8363 37.0703 92.2005 36.5845C91.7075 36.2058 91.3718 35.6486 91.2075 34.9342C91.1432 34.6699 90.9503 34.4841 90.7288 34.4841H90.686V34.4627Z" fill="#14243A"/>
<path d="M86.121 0.750251C85.9067 0.535932 85.6424 0.428772 85.3424 0.428772H75.1622C74.8621 0.428772 74.5907 0.543076 74.3835 0.750251C74.1692 0.96457 74.062 1.2289 74.062 1.52894C74.062 1.82899 74.1763 2.10046 74.3835 2.30764C74.5978 2.52196 74.8621 2.62912 75.1622 2.62912H79.1485V15.624C79.1485 15.9241 79.2557 16.1884 79.47 16.4027C79.6843 16.617 79.9487 16.7242 80.2487 16.7242C80.5487 16.7242 80.8131 16.617 81.0274 16.4027C81.2417 16.1884 81.3489 15.9241 81.3489 15.624V2.63626H85.3352C85.6353 2.63626 85.8996 2.5291 86.1139 2.31478C86.3282 2.10046 86.4354 1.82899 86.4354 1.53609C86.4497 1.2289 86.3425 0.96457 86.121 0.750251Z" fill="#14243A"/>
<path d="M118.919 0.750251C118.705 0.535932 118.44 0.428772 118.14 0.428772H107.96C107.66 0.428772 107.389 0.543076 107.181 0.750251C106.967 0.96457 106.86 1.2289 106.86 1.52894C106.86 1.82899 106.974 2.10046 107.181 2.30764C107.396 2.52196 107.66 2.62912 107.96 2.62912H111.946V15.624C111.946 15.9241 112.054 16.1884 112.268 16.4027C112.482 16.617 112.746 16.7242 113.047 16.7242C113.347 16.7242 113.611 16.617 113.825 16.4027C114.04 16.1884 114.147 15.9241 114.147 15.624V2.63626H118.133C118.433 2.63626 118.697 2.5291 118.912 2.31478C119.126 2.10046 119.233 1.82899 119.233 1.53609C119.248 1.2289 119.133 0.96457 118.919 0.750251Z" fill="#14243A"/>
<path d="M132 0.778827C131.771 0.55022 131.485 0.428772 131.157 0.428772C130.828 0.428772 130.542 0.543076 130.314 0.778827C130.085 1.00743 129.964 1.29319 129.964 1.62182V10.8233C129.964 11.2948 129.871 11.7377 129.699 12.1449C129.521 12.5521 129.278 12.9236 128.971 13.2308C128.663 13.5451 128.299 13.788 127.885 13.9666C127.47 14.1452 127.027 14.2309 126.556 14.2309C126.084 14.2309 125.641 14.1381 125.227 13.9595C124.813 13.7809 124.448 13.5308 124.148 13.2236C123.848 12.9164 123.598 12.5521 123.42 12.1377C123.241 11.7234 123.155 11.2805 123.155 10.8233V1.62182C123.155 1.29319 123.034 1.00743 122.805 0.778827C122.577 0.55022 122.291 0.428772 121.962 0.428772C121.634 0.428772 121.348 0.543076 121.119 0.778827C120.891 1.00743 120.769 1.29319 120.769 1.62182V10.8233C120.769 12.4164 121.341 13.7951 122.47 14.9239C123.584 16.0526 124.963 16.6242 126.556 16.6242C127.085 16.6242 127.599 16.5527 128.092 16.417C128.578 16.2813 129.049 16.0812 129.478 15.824C129.906 15.5669 130.306 15.2597 130.657 14.9096C131.007 14.5596 131.314 14.1595 131.564 13.7309C131.814 13.3022 132.014 12.8379 132.15 12.3521C132.285 11.8663 132.357 11.3519 132.357 10.8233V1.62182C132.35 1.29319 132.228 1.01458 132 0.778827Z" fill="#14243A"/>
<path d="M58.4093 30.8193C58.4093 32.9768 57.6449 34.8199 56.1161 36.3487C54.5944 37.8704 52.7512 38.6348 50.6009 38.6348C48.4363 38.6348 46.6003 37.8704 45.0715 36.3487C43.5498 34.8271 42.7854 32.9839 42.7854 30.8193C42.7854 28.6618 43.5498 26.8258 45.0715 25.3041C46.6003 23.7753 48.4434 23.0109 50.6009 23.0109C52.7512 23.0109 54.5872 23.7753 56.1161 25.3041C56.8876 26.0757 57.4591 26.9115 57.8378 27.826C58.2164 28.7332 58.4093 29.7334 58.4093 30.8193ZM50.5938 25.0827C49.7865 25.0827 49.0507 25.2256 48.3791 25.5042C47.7147 25.7828 47.0932 26.2043 46.5288 26.7758C45.9645 27.3402 45.543 27.9546 45.2644 28.6189C44.9857 29.2833 44.85 30.0192 44.85 30.8264C44.85 32.4124 45.4072 33.7698 46.5288 34.8914C47.6504 36.013 49.0007 36.5702 50.5938 36.5702C52.1797 36.5702 53.5371 36.013 54.6587 34.8914C55.7803 33.7698 56.3375 32.4195 56.3375 30.8264C56.3375 29.2476 55.7803 27.8903 54.6587 26.7758C53.5299 25.6471 52.1797 25.0827 50.5938 25.0827Z" fill="#14243A"/>
<path d="M58.4093 30.8193C58.4093 32.9768 57.6449 34.8199 56.1161 36.3487C54.5944 37.8704 52.7512 38.6348 50.6009 38.6348C48.4363 38.6348 46.6003 37.8704 45.0715 36.3487C43.5498 34.8271 42.7854 32.9839 42.7854 30.8193C42.7854 28.6618 43.5498 26.8258 45.0715 25.3041C46.6003 23.7753 48.4434 23.0109 50.6009 23.0109C52.7512 23.0109 54.5872 23.7753 56.1161 25.3041C56.8876 26.0757 57.4591 26.9115 57.8378 27.826C58.2164 28.7332 58.4093 29.7334 58.4093 30.8193ZM50.5938 25.0827C49.7865 25.0827 49.0507 25.2256 48.3791 25.5042C47.7147 25.7828 47.0932 26.2043 46.5288 26.7758C45.9645 27.3402 45.543 27.9546 45.2644 28.6189C44.9857 29.2833 44.85 30.0192 44.85 30.8264C44.85 32.4124 45.4072 33.7698 46.5288 34.8914C47.6504 36.013 49.0007 36.5702 50.5938 36.5702C52.1797 36.5702 53.5371 36.013 54.6587 34.8914C55.7803 33.7698 56.3375 32.4195 56.3375 30.8264C56.3375 29.2476 55.7803 27.8903 54.6587 26.7758C53.5299 25.6471 52.1797 25.0827 50.5938 25.0827Z" stroke="#14243A" stroke-width="0.459801" stroke-miterlimit="10"/>
<path d="M87.6498 30.8193C87.6498 32.9768 86.8854 34.8199 85.3565 36.3487C83.8349 37.8704 81.9917 38.6348 79.8414 38.6348C77.6768 38.6348 75.8408 37.8704 74.3119 36.3487C72.7903 34.8271 72.0259 32.9839 72.0259 30.8193C72.0259 28.6618 72.7903 26.8258 74.3119 25.3041C75.8408 23.7753 77.6839 23.0109 79.8414 23.0109C81.9917 23.0109 83.8277 23.7753 85.3565 25.3041C86.1281 26.0757 86.6996 26.9115 87.0782 27.826C87.464 28.7332 87.6498 29.7334 87.6498 30.8193ZM79.8414 25.0827C79.0341 25.0827 78.2983 25.2256 77.6268 25.5042C76.9624 25.7828 76.3408 26.2043 75.7765 26.7758C75.2121 27.3473 74.7906 27.9546 74.512 28.6189C74.2334 29.2833 74.0976 30.0192 74.0976 30.8264C74.0976 32.4124 74.6549 33.7698 75.7765 34.8914C76.8981 36.013 78.2483 36.5702 79.8414 36.5702C81.4273 36.5702 82.7847 36.013 83.9063 34.8914C85.0279 33.7698 85.5851 32.4195 85.5851 30.8264C85.5851 29.2476 85.0279 27.8903 83.9063 26.7758C82.7776 25.6471 81.4202 25.0827 79.8414 25.0827Z" fill="#14243A"/>
<path d="M87.6498 30.8193C87.6498 32.9768 86.8854 34.8199 85.3565 36.3487C83.8349 37.8704 81.9917 38.6348 79.8414 38.6348C77.6768 38.6348 75.8408 37.8704 74.3119 36.3487C72.7903 34.8271 72.0259 32.9839 72.0259 30.8193C72.0259 28.6618 72.7903 26.8258 74.3119 25.3041C75.8408 23.7753 77.6839 23.0109 79.8414 23.0109C81.9917 23.0109 83.8277 23.7753 85.3565 25.3041C86.1281 26.0757 86.6996 26.9115 87.0782 27.826C87.464 28.7332 87.6498 29.7334 87.6498 30.8193ZM79.8414 25.0827C79.0341 25.0827 78.2983 25.2256 77.6268 25.5042C76.9624 25.7828 76.3408 26.2043 75.7765 26.7758C75.2121 27.3473 74.7906 27.9546 74.512 28.6189C74.2334 29.2833 74.0976 30.0192 74.0976 30.8264C74.0976 32.4124 74.6549 33.7698 75.7765 34.8914C76.8981 36.013 78.2483 36.5702 79.8414 36.5702C81.4273 36.5702 82.7847 36.013 83.9063 34.8914C85.0279 33.7698 85.5851 32.4195 85.5851 30.8264C85.5851 29.2476 85.0279 27.8903 83.9063 26.7758C82.7776 25.6471 81.4202 25.0827 79.8414 25.0827Z" stroke="#14243A" stroke-width="0.459801" stroke-miterlimit="10"/>
<path d="M17.5389 5.03664C17.8604 5.03664 18.1604 4.89376 18.3676 4.65801C18.4533 4.56513 18.5391 4.47226 18.6319 4.37939C19.7893 3.22207 21.2038 2.63626 22.8326 2.63626C24.4614 2.63626 25.8759 3.22207 27.0333 4.37939C27.1261 4.47226 27.2119 4.56513 27.2976 4.65801C27.5119 4.89376 27.812 5.03664 28.1263 5.03664C29.0764 5.03664 29.5908 3.91503 28.955 3.20063C28.8407 3.07204 28.7192 2.94345 28.5906 2.81486C27.0118 1.2289 25.0758 0.428772 22.8326 0.428772C20.5965 0.428772 18.6534 1.23604 17.0674 2.822C16.9388 2.9506 16.8174 3.07919 16.7031 3.20778C16.0744 3.91503 16.5888 5.03664 17.5389 5.03664Z" fill="#14243A"/>
<path d="M30.7621 6.57264C30.6406 6.07971 30.1977 5.72251 29.6833 5.72251C28.9618 5.72251 28.4403 6.40118 28.6117 7.10844C28.7046 7.47992 28.7617 7.87284 28.776 8.27291C28.7832 8.37292 28.7832 8.47294 28.7832 8.57295C28.7832 8.67297 28.7832 8.77298 28.776 8.873C28.7046 10.3804 28.1259 11.6877 27.04 12.7736C26.99 12.8236 26.94 12.8665 26.89 12.9165C26.8829 12.9236 26.8829 12.9236 26.8757 12.9308C26.8257 12.9736 26.7829 13.0165 26.7328 13.0594C26.7186 13.0665 26.7043 13.0808 26.6971 13.0951C26.54 13.2308 26.3828 13.3523 26.2185 13.4666C26.2185 13.4737 26.2113 13.4737 26.2042 13.4737C26.1613 13.5023 26.1113 13.538 26.0685 13.5666C26.0613 13.5737 26.047 13.5809 26.0399 13.588C26.0399 13.588 26.0399 13.588 26.0327 13.5952C25.9327 13.6595 25.8327 13.7166 25.7327 13.7738C25.7113 13.7881 25.697 13.7952 25.6755 13.8095C25.6255 13.8381 25.5755 13.8595 25.5255 13.8738C25.3755 13.9524 25.2183 14.0238 25.0612 14.0881C24.5182 14.3096 23.9324 13.9024 23.9324 13.3166C23.9324 12.9808 24.1396 12.6807 24.4468 12.5521C26.0042 11.9163 27.1043 10.3875 27.1043 8.60867C27.1043 6.15114 25.0112 4.17226 22.5179 4.35801C20.4176 4.51517 18.7316 6.21544 18.5959 8.31577C18.4673 10.2161 19.596 11.8806 21.2391 12.5521C21.5535 12.6807 21.7535 12.9808 21.7535 13.3166C21.7535 13.9095 21.1534 14.3024 20.6105 14.081C20.4604 14.0167 20.3104 13.9452 20.1604 13.8738C20.1104 13.8595 20.0675 13.8381 20.0175 13.8166C20.0104 13.8095 19.9961 13.8023 19.9889 13.8023C19.9532 13.7809 19.9246 13.7666 19.8889 13.7452C19.8103 13.7023 19.7389 13.6523 19.6675 13.6095C19.6675 13.6095 19.6603 13.6023 19.6532 13.6023C19.596 13.5666 19.5389 13.5309 19.4889 13.488C19.4817 13.488 19.4817 13.4809 19.4746 13.4809C19.3103 13.3666 19.1531 13.238 19.0031 13.1094C18.9888 13.0951 18.9745 13.0879 18.9602 13.0737C18.9102 13.0308 18.8673 12.9879 18.8173 12.9451C18.8102 12.9379 18.803 12.9308 18.803 12.9308C18.753 12.8879 18.703 12.8379 18.6602 12.7879C17.5028 11.6306 16.917 10.2161 16.917 8.58724C16.917 8.06573 16.9742 7.56565 17.0956 7.09415C17.2671 6.40118 16.7313 5.73679 16.0169 5.73679C15.7597 5.73679 15.524 5.82252 15.3311 5.97255C15.1453 6.12257 15.0024 6.33689 14.9381 6.57978C14.781 7.2156 14.7024 7.88713 14.7024 8.58724C14.7024 10.8233 15.5025 12.7665 17.0956 14.3524C18.6816 15.9384 20.6176 16.7457 22.8608 16.7457C25.0969 16.7457 27.04 15.9455 28.626 14.3524C30.212 12.7665 31.0192 10.8304 31.0192 8.58724C30.9978 7.87999 30.9192 7.2156 30.7621 6.57264Z" fill="#9647C9"/>
<path d="M20.7837 12.4033C20.7837 12.4033 20.776 12.4033 20.776 12.3955C20.776 12.3955 20.7682 12.3878 20.7605 12.3878C20.7605 12.3955 20.7682 12.3955 20.776 12.3955C20.776 12.3955 20.776 12.4033 20.7837 12.4033Z" fill="white"/>
<path d="M89.2217 20.4891L86.9713 22.7323C86.7641 22.9394 86.4927 23.0466 86.164 23.0466C85.8283 23.0466 85.5497 22.9394 85.3282 22.718C85.1067 22.4965 84.9924 22.2179 84.9924 21.8821C84.9924 21.5606 85.0925 21.2963 85.2853 21.082L87.5357 18.8388C87.7786 18.603 88.0501 18.4887 88.3715 18.4887C88.7073 18.4887 88.9859 18.603 89.2074 18.8317C89.4288 19.0603 89.5431 19.3389 89.5431 19.6675C89.536 20.0033 89.436 20.2819 89.2217 20.4891Z" fill="#14243A"/>
<path d="M121.305 27.2973C121.626 27.2973 121.926 27.1544 122.141 26.9187C122.226 26.8258 122.312 26.7329 122.405 26.64C123.562 25.4827 124.977 24.8969 126.606 24.8969C128.234 24.8969 129.649 25.4827 130.806 26.64C130.899 26.7329 130.985 26.8258 131.071 26.9187C131.285 27.1544 131.585 27.2973 131.906 27.2973C132.857 27.2973 133.371 26.1757 132.735 25.4613C132.621 25.3327 132.499 25.2041 132.371 25.0755C130.785 23.4896 128.849 22.6823 126.606 22.6823C124.37 22.6823 122.426 23.4896 120.84 25.0755C120.712 25.2041 120.59 25.3327 120.476 25.4613C119.84 26.1757 120.355 27.2973 121.305 27.2973Z" fill="#14243A"/>
<path d="M134.528 28.8333C134.407 28.3332 133.964 27.9831 133.45 27.9831C132.728 27.9831 132.207 28.6618 132.378 29.3691C132.471 29.7405 132.528 30.1335 132.542 30.5335C132.549 30.6335 132.549 30.7336 132.549 30.8336C132.549 30.9336 132.549 31.0336 132.542 31.1336C132.471 32.641 131.892 33.9483 130.806 35.0342C130.756 35.0842 130.706 35.1271 130.656 35.1771C130.649 35.1843 130.649 35.1843 130.642 35.1914C130.592 35.2343 130.549 35.2771 130.499 35.32C130.485 35.3271 130.471 35.3414 130.463 35.3557C130.306 35.4914 130.149 35.6129 129.985 35.7272C129.978 35.7272 129.978 35.7343 129.971 35.7343C129.928 35.7701 129.878 35.7986 129.835 35.8272C129.82 35.8344 129.813 35.8415 129.806 35.8486H129.799C129.699 35.9129 129.599 35.9701 129.499 36.0272C129.478 36.0415 129.456 36.0487 129.442 36.063C129.392 36.0915 129.342 36.113 129.292 36.1273C129.142 36.2058 128.985 36.2773 128.827 36.3416C128.285 36.563 127.699 36.1558 127.699 35.57C127.699 35.2343 127.899 34.9342 128.213 34.8056C129.77 34.1698 130.871 32.641 130.871 30.8622C130.871 28.4046 128.777 26.4257 126.284 26.6115C124.191 26.7687 122.498 28.4689 122.362 30.5692C122.234 32.4695 123.369 34.1341 125.005 34.8056C125.32 34.9342 125.52 35.2343 125.52 35.57C125.52 36.163 124.92 36.5559 124.37 36.3344C124.212 36.2701 124.07 36.1987 123.92 36.1273C123.87 36.113 123.827 36.0915 123.777 36.0701C123.77 36.063 123.755 36.0558 123.748 36.0558C123.712 36.0344 123.684 36.0201 123.648 35.9987C123.569 35.9558 123.498 35.9058 123.419 35.8629C123.412 35.8629 123.412 35.8558 123.405 35.8558C123.348 35.8201 123.291 35.7843 123.241 35.7415C123.234 35.7415 123.234 35.7343 123.227 35.7343C123.062 35.62 122.905 35.4914 122.755 35.3629C122.741 35.3486 122.727 35.3414 122.712 35.3271C122.662 35.2843 122.619 35.2414 122.569 35.1985C122.562 35.1914 122.555 35.1843 122.555 35.1843C122.505 35.1414 122.455 35.0914 122.405 35.0414C121.248 33.8841 120.662 32.4695 120.662 30.8407C120.662 30.3192 120.719 29.8191 120.84 29.3476C121.012 28.6547 120.476 27.9903 119.762 27.9903C119.505 27.9903 119.269 28.076 119.076 28.226C118.883 28.376 118.747 28.5904 118.683 28.8333C118.526 29.4691 118.447 30.1406 118.447 30.8407C118.447 33.0768 119.247 35.0199 120.84 36.6059C122.426 38.1919 124.362 38.9991 126.606 38.9991C128.842 38.9991 130.785 38.199 132.371 36.6059C133.957 35.0199 134.764 33.0839 134.764 30.8407C134.764 30.1406 134.678 29.4762 134.528 28.8333Z" fill="#3ABBED"/>
<path d="M124.55 34.6639C124.55 34.6639 124.543 34.6639 124.543 34.6562C124.535 34.6562 124.535 34.6562 124.527 34.6484C124.535 34.6484 124.535 34.6562 124.543 34.6562C124.535 34.6562 124.543 34.6639 124.55 34.6639Z" fill="white"/>
</svg>
