<svg width="25" height="21" viewBox="0 0 25 21" fill="none" xmlns="http://www.w3.org/2000/svg">
<path d="M24.7524 4.15194C24.3702 4.76776 23.9821 5.38003 23.6111 6.00212C23.5452 6.11262 23.5073 6.26896 23.5265 6.39338C23.9135 8.87192 23.6674 11.2741 22.6327 13.5807C22.051 14.877 21.2434 16.0309 20.2946 17.0974C18.3074 19.3315 15.7433 20.4584 12.7973 20.8319C9.32347 21.2723 5.95201 20.8433 2.69131 19.5978C2.05552 19.355 1.44819 19.0483 0.934866 18.5937C0.616273 18.3116 0.530347 18.03 0.653935 17.7157C0.776127 17.4049 1.04367 17.26 1.46744 17.2529C2.23714 17.2404 3.00963 17.2535 3.7757 17.1935C5.05426 17.0931 6.23267 16.6985 7.2766 15.8863C7.13795 15.8481 7.02413 15.817 6.91031 15.7853C5.55782 15.4074 4.2801 14.8778 3.17674 14.0033C2.94044 13.8159 2.71363 13.6145 2.49966 13.4031C2.06808 12.9764 2.23491 12.3491 2.82104 12.1753C3.06515 12.103 3.31399 12.0449 3.58516 11.9736C3.20491 11.7314 2.84085 11.524 2.50384 11.2803C1.15219 10.3038 0.384721 8.9756 0.101557 7.37071C0.0125633 6.8654 0.491011 6.45368 1.00991 6.57455C1.27243 6.63567 1.52909 6.72134 1.80277 6.79965C1.67109 6.41984 1.52156 6.06815 1.42754 5.7028C1.07101 4.32056 1.24174 3.01063 2.05273 1.80601C2.4765 1.17628 3.09165 1.19319 3.46827 1.84666C4.20561 3.12577 5.1321 4.24799 6.31022 5.16339C7.83372 6.34754 9.56283 7.06131 11.4922 7.31069C11.6024 7.32488 11.7126 7.33879 11.832 7.3538C11.853 6.96063 11.8552 6.57728 11.8962 6.19829C12.1484 3.85727 13.7693 1.63657 16.308 1.11816C17.4445 0.885969 18.5418 1.00575 19.5932 1.48732C19.7458 1.55717 19.8633 1.56208 20.0167 1.48705C20.9558 1.02812 21.8987 0.576015 22.8447 0.130729C23.3541 -0.109103 23.8633 0.102899 23.9456 0.606028C23.9746 0.783378 23.9168 0.996744 23.8365 1.16536C23.5215 1.82593 23.1812 2.47475 22.8509 3.12822C22.8165 3.19616 22.7856 3.26574 22.7362 3.37024C23.095 3.34295 23.4161 3.33777 23.7305 3.29002C24.2176 3.21635 24.5607 3.37133 24.7529 3.82207C24.7524 3.93203 24.7524 4.04199 24.7524 4.15194ZM4.47203 13.2113C4.9848 13.4664 5.45125 13.7259 5.94002 13.9357C6.86204 14.3319 7.83261 14.5717 8.82968 14.7081C9.16055 14.7534 9.4306 14.8841 9.54414 15.217C9.64653 15.5168 9.54665 15.767 9.33602 15.9921C8.0106 17.4085 6.39866 18.3018 4.44023 18.5664C4.38527 18.5738 4.33227 18.5932 4.24997 18.6142C4.29963 18.6431 4.3119 18.654 4.32641 18.6584C7.31817 19.5681 10.3582 19.8338 13.4501 19.2693C15.1045 18.9672 16.6394 18.3673 17.9509 17.3105C19.2688 16.2486 20.2951 14.9504 21.0629 13.4609C21.6674 12.2877 22.0287 11.0432 22.1696 9.73411C22.2918 8.59989 22.2003 7.47713 22.0309 6.35709C21.9816 6.03104 22.0206 5.73636 22.2142 5.46052C22.3481 5.27007 22.4639 5.06707 22.6093 4.83542C22.2522 4.86271 21.9419 4.89354 21.6309 4.90882C20.903 4.94456 20.5579 4.42233 20.8802 3.77705C21.0877 3.36151 21.3003 2.94842 21.509 2.53314C21.5341 2.48321 21.548 2.42783 21.5809 2.33724C21.129 2.55252 20.7094 2.73068 20.3119 2.94814C19.9249 3.1596 19.5851 3.13423 19.2071 2.91513C18.3992 2.4472 17.5196 2.34188 16.6054 2.52687C14.8352 2.88484 13.649 4.43216 13.3807 6.14018C13.2819 6.768 13.3422 7.389 13.4303 8.01381C13.5017 8.51831 13.1491 8.89238 12.6405 8.84491C11.8438 8.77069 11.037 8.71612 10.2589 8.54614C7.46464 7.93605 5.18287 6.50361 3.39853 4.31483C3.21524 4.09001 3.04032 3.85918 2.85424 3.6218C2.67737 4.06845 2.7061 4.92792 2.89581 5.517C3.08719 6.11126 3.41945 6.61848 3.82787 7.09241C4.23937 7.57017 3.98131 8.19444 3.35026 8.29321C3.16865 8.32159 2.98452 8.34341 2.80095 8.34914C2.51026 8.35842 2.21872 8.3516 1.91966 8.3516C2.18302 8.97696 2.60706 9.50001 3.13852 9.94257C3.84126 10.5281 4.65923 10.8945 5.54303 11.1333C5.87585 11.2233 6.1261 11.4026 6.17213 11.7633C6.21928 12.1313 6.03041 12.3739 5.71349 12.5428C5.31957 12.7526 4.92788 12.9657 4.47203 13.2113Z" fill="#3ABBED"/>
</svg>
